# xmcd
#
# Track frame offsets: 
#        212
#        15905
#        27405
#        42795
#        55520
#        67815
#        80375
#        93745
#        106992
#        119660
#        131447
#        143375
#        155382
#        166440
#        179187
#        188137
#        197512
#        220322
#        229140
#        239140
#
# Disc length: 3352 seconds
#
# Revision: 3
# Processed by: cddbd v1.5.2PL0 Copyright (c) Steve Scherf et al.
# Submitted via: ExactAudioCopy v0.99pb4
#
DISCID=100d1614
DTITLE=The Platters - The Greatest Hits 20
DYEAR=1986
DGENRE=Oldies
TTITLE0=My Prayer
TTITLE1=Smoke Gets In Your Eyes
TTITLE2=The Great Pretender
TTITLE3=Twilight Time
TTITLE4=(You've Got) The Magic Touch
TTITLE5=Only You (And You Alone)
TTITLE6=Harbor Lights
TTITLE7=I'm Sorry
TTITLE8=If I Had You
TTITLE9=How Beautiful Our Love
TTITLE10=With This Ring
TTITLE11=I Love You 1000 Times
TTITLE12=Red Sails In The Sunset
TTITLE13=Washed Ashore (On A Lonely Island In The Sea)
TTITLE14=Sweet-Sweet Lovin'
TTITLE15=Doesn't It Ring A Bell
TTITLE16=Unchained Melody
TTITLE17=Devri
TTITLE18=One In A Million
TTITLE19=Pledging My Love
EXTD=
EXTT0=
EXTT1=
EXTT2=
EXTT3=
EXTT4=
EXTT5=
EXTT6=
EXTT7=
EXTT8=
EXTT9=
EXTT10=
EXTT11=
EXTT12=
EXTT13=
EXTT14=
EXTT15=
EXTT16=
EXTT17=
EXTT18=
EXTT19=
PLAYORDER=
